<svg width="90" height="90" viewBox="0 0 90 90" fill="none" xmlns="http://www.w3.org/2000/svg">
<rect x="3" y="3" width="84" height="84" rx="12" fill="#FF2E00" stroke="#C10000" stroke-width="6"/>
<path d="M34.684 20.432C35.6587 19.8587 37.1207 19.314 39.07 18.798C41.0767 18.282 43.0833 18.024 45.09 18.024C47.9567 18.024 50.4793 18.454 52.658 19.314C54.894 20.1167 56.3273 21.4067 56.958 23.184C57.99 26.1653 59.108 29.634 60.312 33.59C61.516 37.546 62.72 41.6453 63.924 45.888C65.128 50.0733 66.3033 54.23 67.45 58.358C68.5967 62.4287 69.6 66.0407 70.46 69.194C69.772 69.9967 68.74 70.6273 67.364 71.086C65.988 71.602 64.354 71.86 62.462 71.86C61.086 71.86 59.9107 71.7453 58.936 71.516C58.0187 71.2867 57.2447 70.9427 56.614 70.484C56.0407 70.0253 55.5533 69.4233 55.152 68.678C54.808 67.9327 54.4927 67.0727 54.206 66.098L52.658 60.164H37.092C36.6333 61.884 36.1747 63.6613 35.716 65.496C35.2573 67.3307 34.7987 69.108 34.34 70.828C33.5373 71.1147 32.6773 71.344 31.76 71.516C30.9 71.7453 29.8393 71.86 28.578 71.86C25.654 71.86 23.4753 71.3727 22.042 70.398C20.666 69.366 19.978 67.9613 19.978 66.184C19.978 65.3813 20.0927 64.5787 20.322 63.776C20.5513 62.9733 20.8093 62.0273 21.096 60.938C21.4973 59.39 22.042 57.4693 22.73 55.176C23.4753 52.8827 24.278 50.4173 25.138 47.78C25.998 45.0853 26.9153 42.3333 27.89 39.524C28.8647 36.7147 29.782 34.0773 30.642 31.612C31.502 29.0893 32.276 26.8533 32.964 24.904C33.7093 22.9547 34.2827 21.464 34.684 20.432ZM45.004 31.526C44.2013 33.934 43.284 36.6287 42.252 39.61C41.2773 42.534 40.3887 45.5153 39.586 48.554H50.25C49.4473 45.458 48.616 42.448 47.756 39.524C46.9533 36.5427 46.208 33.8767 45.52 31.526H45.004Z" fill="white"/>
</svg>
