<svg width="90" height="90" viewBox="0 0 90 90" fill="none" xmlns="http://www.w3.org/2000/svg">
<rect x="3" y="3" width="84" height="84" rx="12" fill="#0085FF" stroke="#0070C1" stroke-width="6"/>
<path d="M39.21 60.25C40.0127 60.4793 41.0447 60.6513 42.306 60.766C43.5673 60.8233 44.7713 60.852 45.918 60.852C48.2113 60.852 50.1033 60.3933 51.594 59.476C53.142 58.5013 53.916 57.0107 53.916 55.004C53.916 53.112 53.2853 51.7647 52.024 50.962C50.7627 50.1593 48.842 49.758 46.262 49.758H39.21V60.25ZM39.21 39.266H45.488C47.9533 39.266 49.7307 38.8073 50.82 37.89C51.9667 36.9727 52.54 35.6253 52.54 33.848C52.54 32.3 51.8807 31.0673 50.562 30.15C49.3007 29.2327 47.38 28.774 44.8 28.774C43.94 28.774 42.9367 28.8027 41.79 28.86C40.7007 28.9173 39.8407 29.0033 39.21 29.118V39.266ZM44.8 72.376C43.8253 72.376 42.6787 72.3473 41.36 72.29C40.0413 72.2327 38.6653 72.118 37.232 71.946C35.856 71.774 34.48 71.5447 33.104 71.258C31.728 71.0287 30.4667 70.6847 29.32 70.226C26.1667 69.022 24.59 66.9293 24.59 63.948V23.786C24.59 22.582 24.9053 21.6647 25.536 21.034C26.224 20.346 27.1413 19.8013 28.288 19.4C30.2373 18.712 32.674 18.2247 35.598 17.938C38.522 17.594 41.532 17.422 44.628 17.422C51.9667 17.422 57.614 18.6547 61.57 21.12C65.526 23.5853 67.504 27.398 67.504 32.558C67.504 35.138 66.7587 37.374 65.268 39.266C63.7773 41.1007 61.7707 42.448 59.248 43.308C62.1147 44.1107 64.494 45.5727 66.386 47.694C68.3353 49.8153 69.31 52.4813 69.31 55.692C69.31 61.368 67.1887 65.582 62.946 68.334C58.7607 71.0287 52.712 72.376 44.8 72.376Z" fill="white"/>
</svg>
