<svg width="90" height="90" viewBox="0 0 90 90" fill="none" xmlns="http://www.w3.org/2000/svg">
<rect x="3" y="3" width="84" height="84" rx="12" fill="#FFC700" stroke="#C18B00" stroke-width="6"/>
<path d="M51.164 29.376C46.7493 29.376 43.3667 30.7233 41.016 33.418C38.6653 36.1127 37.49 39.9253 37.49 44.856C37.49 49.844 38.78 53.6853 41.36 56.38C43.9973 59.0747 47.5233 60.422 51.938 60.422C54.2887 60.422 56.2667 60.1067 57.872 59.476C59.5347 58.8453 61.1113 58.1287 62.602 57.326C63.5767 58.1287 64.322 59.1033 64.838 60.25C65.4113 61.3393 65.698 62.6293 65.698 64.12C65.698 66.4707 64.3793 68.4773 61.742 70.14C59.162 71.7453 55.206 72.548 49.874 72.548C46.0327 72.548 42.4207 72.0033 39.038 70.914C35.6553 69.8247 32.7027 68.162 30.18 65.926C27.6573 63.6327 25.6507 60.766 24.16 57.326C22.7267 53.8287 22.01 49.672 22.01 44.856C22.01 40.384 22.698 36.4567 24.074 33.074C25.5073 29.634 27.428 26.7387 29.836 24.388C32.3013 22.0373 35.168 20.26 38.436 19.056C41.704 17.852 45.2013 17.25 48.928 17.25C54.2027 17.25 58.2733 18.11 61.14 19.83C64.064 21.55 65.526 23.7573 65.526 26.452C65.526 27.9427 65.1533 29.2327 64.408 30.322C63.6627 31.4113 62.8027 32.2713 61.828 32.902C60.3373 31.9273 58.732 31.096 57.012 30.408C55.3493 29.72 53.4 29.376 51.164 29.376Z" fill="white"/>
</svg>
