<svg width="539" height="90" viewBox="0 0 539 90" fill="none" xmlns="http://www.w3.org/2000/svg">
<rect x="3" y="3" width="84" height="84" rx="12" fill="#FFB800" stroke="#C16800" stroke-width="6"/>
<path d="M34.588 71.258C32.1227 71.258 30.1733 70.5413 28.74 69.108C27.3067 67.6747 26.59 65.7253 26.59 63.26V18.798C27.2207 18.6833 28.224 18.54 29.6 18.368C30.976 18.1387 32.2947 18.024 33.556 18.024C34.8747 18.024 36.0213 18.1387 36.996 18.368C38.028 18.54 38.888 18.884 39.576 19.4C40.264 19.916 40.78 20.6327 41.124 21.55C41.468 22.4673 41.64 23.6713 41.64 25.162V59.132H61.334C61.7353 59.7627 62.108 60.6227 62.452 61.712C62.796 62.744 62.968 63.8333 62.968 64.98C62.968 67.2733 62.4807 68.9073 61.506 69.882C60.5313 70.7993 59.2413 71.258 57.636 71.258H34.588Z" fill="white"/>
<path d="M101.59 26.882C101.59 24.4167 102.307 22.4673 103.74 21.034C105.173 19.6007 107.123 18.884 109.588 18.884H137.968C138.369 19.5147 138.713 20.346 139 21.378C139.344 22.41 139.516 23.4993 139.516 24.646C139.516 26.8247 139.029 28.3727 138.054 29.29C137.137 30.2073 135.904 30.666 134.356 30.666H116.21V38.664H135.56C135.961 39.2947 136.305 40.126 136.592 41.158C136.936 42.1327 137.108 43.1933 137.108 44.34C137.108 46.5187 136.649 48.0667 135.732 48.984C134.815 49.9013 133.582 50.36 132.034 50.36H116.21V59.39H138.312C138.713 60.0207 139.057 60.852 139.344 61.884C139.688 62.916 139.86 64.0053 139.86 65.152C139.86 67.3307 139.373 68.9073 138.398 69.882C137.481 70.7993 136.248 71.258 134.7 71.258H109.588C107.123 71.258 105.173 70.5413 103.74 69.108C102.307 67.6747 101.59 65.7253 101.59 63.26V26.882ZM146.297 30.924C145.896 30.2933 145.523 29.4333 145.179 28.344C144.835 27.2547 144.663 26.108 144.663 24.904C144.663 22.668 145.151 21.0627 146.125 20.088C147.157 19.1133 148.476 18.626 150.081 18.626H187.577C187.979 19.2567 188.351 20.1167 188.695 21.206C189.039 22.2953 189.211 23.442 189.211 24.646C189.211 26.882 188.695 28.4873 187.663 29.462C186.689 30.4367 185.399 30.924 183.793 30.924H174.247V70.656C173.617 70.828 172.613 71 171.237 71.172C169.919 71.344 168.6 71.43 167.281 71.43C165.963 71.43 164.787 71.3153 163.755 71.086C162.781 70.914 161.949 70.57 161.261 70.054C160.573 69.538 160.057 68.8213 159.713 67.904C159.369 66.9867 159.197 65.7827 159.197 64.292V30.924H146.297ZM194.924 30.924C194.523 30.2933 194.15 29.4333 193.806 28.344C193.462 27.2547 193.29 26.108 193.29 24.904C193.29 22.668 193.778 21.0627 194.752 20.088C195.784 19.1133 197.103 18.626 198.708 18.626H236.204C236.606 19.2567 236.978 20.1167 237.322 21.206C237.666 22.2953 237.838 23.442 237.838 24.646C237.838 26.882 237.322 28.4873 236.29 29.462C235.316 30.4367 234.026 30.924 232.42 30.924H222.874V70.656C222.244 70.828 221.24 71 219.864 71.172C218.546 71.344 217.227 71.43 215.908 71.43C214.59 71.43 213.414 71.3153 212.382 71.086C211.408 70.914 210.576 70.57 209.888 70.054C209.2 69.538 208.684 68.8213 208.34 67.904C207.996 66.9867 207.824 65.7827 207.824 64.292V30.924H194.924ZM245.119 26.882C245.119 24.4167 245.836 22.4673 247.269 21.034C248.703 19.6007 250.652 18.884 253.117 18.884H281.497C281.899 19.5147 282.243 20.346 282.529 21.378C282.873 22.41 283.045 23.4993 283.045 24.646C283.045 26.8247 282.558 28.3727 281.583 29.29C280.666 30.2073 279.433 30.666 277.885 30.666H259.739V38.664H279.089C279.491 39.2947 279.835 40.126 280.121 41.158C280.465 42.1327 280.637 43.1933 280.637 44.34C280.637 46.5187 280.179 48.0667 279.261 48.984C278.344 49.9013 277.111 50.36 275.563 50.36H259.739V59.39H281.841C282.243 60.0207 282.587 60.852 282.873 61.884C283.217 62.916 283.389 64.0053 283.389 65.152C283.389 67.3307 282.902 68.9073 281.927 69.882C281.01 70.7993 279.777 71.258 278.229 71.258H253.117C250.652 71.258 248.703 70.5413 247.269 69.108C245.836 67.6747 245.119 65.7253 245.119 63.26V26.882ZM307.199 54.144V70.656C306.568 70.828 305.565 71 304.189 71.172C302.87 71.344 301.551 71.43 300.233 71.43C298.914 71.43 297.739 71.3153 296.707 71.086C295.732 70.914 294.901 70.57 294.213 70.054C293.582 69.538 293.095 68.8213 292.751 67.904C292.407 66.9867 292.235 65.7827 292.235 64.292V23.786C292.235 22.582 292.55 21.6647 293.181 21.034C293.869 20.346 294.786 19.8013 295.933 19.4C297.882 18.712 300.147 18.2247 302.727 17.938C305.307 17.594 308.059 17.422 310.983 17.422C318.895 17.422 324.857 19.0847 328.871 22.41C332.884 25.7353 334.891 30.236 334.891 35.912C334.891 39.4667 333.973 42.5053 332.139 45.028C330.304 47.5507 328.125 49.5 325.603 50.876C327.667 53.6853 329.702 56.3227 331.709 58.788C333.715 61.2533 335.292 63.4893 336.439 65.496C335.865 67.5027 334.805 69.0507 333.257 70.14C331.766 71.172 330.075 71.688 328.183 71.688C326.921 71.688 325.832 71.5447 324.915 71.258C323.997 70.9713 323.195 70.57 322.507 70.054C321.819 69.538 321.188 68.9073 320.615 68.162C320.041 67.4167 319.497 66.614 318.981 65.754L311.757 54.144H307.199ZM312.617 42.706C314.795 42.706 316.515 42.1613 317.777 41.072C319.038 39.9253 319.669 38.2627 319.669 36.084C319.669 33.9053 318.952 32.2713 317.519 31.182C316.143 30.0353 313.935 29.462 310.897 29.462C310.037 29.462 309.349 29.4907 308.833 29.548C308.317 29.6053 307.743 29.6913 307.113 29.806V42.706H312.617ZM364.163 43.05C366.571 43.05 368.405 42.5053 369.667 41.416C370.985 40.2693 371.645 38.5493 371.645 36.256C371.645 34.0773 370.957 32.4147 369.581 31.268C368.262 30.064 366.313 29.462 363.733 29.462C362.815 29.462 362.041 29.4907 361.411 29.548C360.837 29.548 360.235 29.6053 359.605 29.72V43.05H364.163ZM359.691 70.656C359.06 70.828 358.057 71 356.681 71.172C355.362 71.344 354.043 71.43 352.725 71.43C351.406 71.43 350.231 71.3153 349.199 71.086C348.224 70.914 347.393 70.57 346.705 70.054C346.017 69.538 345.501 68.8213 345.157 67.904C344.813 66.9867 344.641 65.7827 344.641 64.292V23.786C344.641 22.582 344.956 21.6647 345.587 21.034C346.275 20.346 347.192 19.8013 348.339 19.4C350.288 18.712 352.495 18.2247 354.961 17.938C357.483 17.594 360.006 17.422 362.529 17.422C370.441 17.422 376.489 19.1133 380.675 22.496C384.86 25.8787 386.953 30.4653 386.953 36.256C386.953 39.0653 386.494 41.6167 385.577 43.91C384.717 46.146 383.398 48.0953 381.621 49.758C379.901 51.3633 377.693 52.6247 374.999 53.542C372.361 54.402 369.294 54.832 365.797 54.832H359.691V70.656ZM409.575 54.144V70.656C408.945 70.828 407.941 71 406.565 71.172C405.247 71.344 403.928 71.43 402.609 71.43C401.291 71.43 400.115 71.3153 399.083 71.086C398.109 70.914 397.277 70.57 396.589 70.054C395.959 69.538 395.471 68.8213 395.127 67.904C394.783 66.9867 394.611 65.7827 394.611 64.292V23.786C394.611 22.582 394.927 21.6647 395.557 21.034C396.245 20.346 397.163 19.8013 398.309 19.4C400.259 18.712 402.523 18.2247 405.103 17.938C407.683 17.594 410.435 17.422 413.359 17.422C421.271 17.422 427.234 19.0847 431.247 22.41C435.261 25.7353 437.267 30.236 437.267 35.912C437.267 39.4667 436.35 42.5053 434.515 45.028C432.681 47.5507 430.502 49.5 427.979 50.876C430.043 53.6853 432.079 56.3227 434.085 58.788C436.092 61.2533 437.669 63.4893 438.815 65.496C438.242 67.5027 437.181 69.0507 435.633 70.14C434.143 71.172 432.451 71.688 430.559 71.688C429.298 71.688 428.209 71.5447 427.291 71.258C426.374 70.9713 425.571 70.57 424.883 70.054C424.195 69.538 423.565 68.9073 422.991 68.162C422.418 67.4167 421.873 66.614 421.357 65.754L414.133 54.144H409.575ZM414.993 42.706C417.172 42.706 418.892 42.1613 420.153 41.072C421.415 39.9253 422.045 38.2627 422.045 36.084C422.045 33.9053 421.329 32.2713 419.895 31.182C418.519 30.0353 416.312 29.462 413.273 29.462C412.413 29.462 411.725 29.4907 411.209 29.548C410.693 29.6053 410.12 29.6913 409.489 29.806V42.706H414.993ZM447.018 26.882C447.018 24.4167 447.734 22.4673 449.168 21.034C450.601 19.6007 452.55 18.884 455.016 18.884H483.396C483.797 19.5147 484.141 20.346 484.428 21.378C484.772 22.41 484.944 23.4993 484.944 24.646C484.944 26.8247 484.456 28.3727 483.482 29.29C482.564 30.2073 481.332 30.666 479.784 30.666H461.638V38.664H480.988C481.389 39.2947 481.733 40.126 482.02 41.158C482.364 42.1327 482.536 43.1933 482.536 44.34C482.536 46.5187 482.077 48.0667 481.16 48.984C480.242 49.9013 479.01 50.36 477.462 50.36H461.638V59.39H483.74C484.141 60.0207 484.485 60.852 484.772 61.884C485.116 62.916 485.288 64.0053 485.288 65.152C485.288 67.3307 484.8 68.9073 483.826 69.882C482.908 70.7993 481.676 71.258 480.128 71.258H455.016C452.55 71.258 450.601 70.5413 449.168 69.108C447.734 67.6747 447.018 65.7253 447.018 63.26V26.882ZM491.725 30.924C491.324 30.2933 490.951 29.4333 490.607 28.344C490.263 27.2547 490.091 26.108 490.091 24.904C490.091 22.668 490.578 21.0627 491.553 20.088C492.585 19.1133 493.904 18.626 495.509 18.626H533.005C533.406 19.2567 533.779 20.1167 534.123 21.206C534.467 22.2953 534.639 23.442 534.639 24.646C534.639 26.882 534.123 28.4873 533.091 29.462C532.116 30.4367 530.826 30.924 529.221 30.924H519.675V70.656C519.044 70.828 518.041 71 516.665 71.172C515.346 71.344 514.028 71.43 512.709 71.43C511.39 71.43 510.215 71.3153 509.183 71.086C508.208 70.914 507.377 70.57 506.689 70.054C506.001 69.538 505.485 68.8213 505.141 67.904C504.797 66.9867 504.625 65.7827 504.625 64.292V30.924H491.725Z" fill="white"/>
</svg>
